<?xml version="1.0" encoding="UTF-8" standalone="no"?>
<!-- Created with Inkscape (http://www.inkscape.org/) -->

<svg
   width="100mm"
   height="100mm"
   viewBox="0 0 100 100"
   version="1.1"
   id="svg1"
   xml:space="preserve"
   xmlns="http://www.w3.org/2000/svg"
   xmlns:svg="http://www.w3.org/2000/svg"><defs
     id="defs1" /><rect
     style="fill:#8080c1;fill-opacity:0;stroke:#000000;stroke-width:0;stroke-linecap:round;stroke-linejoin:round;stroke-dasharray:none;paint-order:normal"
     id="rect5"
     width="100"
     height="100"
     x="1.0157123e-15"
     y="-9.3847422e-15" /><g
     id="layer1"
     transform="translate(-49.665399,-41.654846)"><g
       id="g5"
       transform="translate(22.429534,0.96126575)"
       style="fill:#000000"><path
         style="fill:#000000;fill-opacity:1;stroke:#000000;stroke-width:0;stroke-linecap:round;stroke-linejoin:round;stroke-dasharray:none;paint-order:normal"
         id="path4"
         d="M 78.02515,100.21146 59.589348,89.137986 40.352778,77.939585 59.160591,67.510451 78.476976,56.450293 78.104965,77.952904 Z"
         transform="rotate(-0.64102352,177.04244,138.66156)" /><path
         style="fill:#000000;fill-opacity:1;stroke:#000000;stroke-width:0;stroke-linecap:round;stroke-linejoin:round;stroke-dasharray:none;paint-order:normal"
         id="path4-5"
         d="M 78.02515,100.21146 59.589348,89.137986 40.352778,77.939585 59.160591,67.510451 78.476976,56.450293 78.104965,77.952904 Z"
         transform="matrix(-0.99999189,-0.00402713,-0.00402713,0.99999189,155.6936,1.3587637)" /></g><g
       id="g5-0"
       transform="translate(21.571962,26.805644)"
       style="fill:#000000"><path
         style="fill:#000000;fill-opacity:1;stroke:#000000;stroke-width:0;stroke-linecap:round;stroke-linejoin:round;stroke-dasharray:none;paint-order:normal"
         id="path4-4"
         d="M 78.02515,100.21146 59.589348,89.137986 40.352778,77.939585 59.160591,67.510451 78.476976,56.450293 78.104965,77.952904 Z"
         transform="rotate(-0.64102352,177.04244,138.66156)" /><path
         style="fill:#000000;fill-opacity:1;stroke:#000000;stroke-width:0;stroke-linecap:round;stroke-linejoin:round;stroke-dasharray:none;paint-order:normal"
         id="path4-5-0"
         d="M 78.02515,100.21146 59.589348,89.137986 40.352778,77.939585 59.160591,67.510451 78.476976,56.450293 78.104965,77.952904 Z"
         transform="matrix(-0.99999189,-0.00402713,-0.00402713,0.99999189,155.6936,1.3587637)" /></g><rect
       style="fill:#000000;fill-opacity:1;stroke:#000000;stroke-width:0;stroke-linecap:round;stroke-linejoin:round;stroke-dasharray:none;paint-order:normal"
       id="rect6"
       width="4.6461182"
       height="63.924171"
       x="97.08783"
       y="61.360794" /></g></svg>
